<svg version="1.1" id="Layer_1" xmlns="http://www.w3.org/2000/svg" xmlns:xlink="http://www.w3.org/1999/xlink" x="0px" y="0px"
	 width="100%" viewBox="0 0 500 500" enable-background="new 0 0 500 500" xml:space="preserve">
<path fill="#000000" opacity="1.000000" stroke="none" 
	d="
M454.000000,501.000000 
	C302.666718,501.000000 151.833405,501.000000 1.000081,501.000000 
	C1.000054,334.333405 1.000054,167.666824 1.000027,1.000170 
	C167.666550,1.000114 334.333099,1.000114 500.999756,1.000057 
	C500.999817,167.666519 500.999817,334.333038 500.999908,500.999756 
	C485.500000,501.000000 470.000000,501.000000 454.000000,501.000000 
M257.496918,221.000717 
	C248.206390,221.000717 238.915848,221.000717 229.625320,221.000717 
	C229.630722,221.228394 229.636124,221.456070 229.641525,221.683746 
	C244.215561,221.683746 258.789612,221.683746 273.363647,221.683746 
	C273.365326,221.456070 273.367035,221.228394 273.368713,221.000717 
	C268.410767,221.000717 263.452789,221.000717 257.496918,221.000717 
M225.978531,226.127151 
	C225.182831,226.127151 224.387115,226.127151 223.591415,226.127151 
	C223.590897,226.329453 223.590378,226.531738 223.589859,226.734039 
	C238.227753,226.734039 252.865646,226.734039 267.503540,226.734039 
	C267.506165,226.508011 267.508789,226.281998 267.511414,226.055969 
	C253.968033,226.055969 240.424637,226.055969 225.978531,226.127151 
M228.626724,114.996689 
	C226.332626,114.996689 224.038513,114.996689 221.744415,114.996689 
	C221.756149,115.246651 221.767899,115.496613 221.779648,115.746574 
	C231.638733,115.746574 241.497818,115.746574 251.356903,115.746574 
	C251.358826,115.496773 251.360733,115.246971 251.362640,114.997169 
	C244.106247,114.997169 236.849869,114.997169 228.626724,114.996689 
M219.555328,116.494339 
	C219.555328,116.494339 219.584579,116.542374 219.555328,116.494339 
z"/>
<path fill="#FFFFFF" opacity="1.000000" stroke="none" 
	d="
M257.995850,221.000717 
	C263.452789,221.000717 268.410767,221.000717 273.368713,221.000717 
	C273.367035,221.228394 273.365326,221.456070 273.363647,221.683746 
	C258.789612,221.683746 244.215561,221.683746 229.641525,221.683746 
	C229.636124,221.456070 229.630722,221.228394 229.625320,221.000717 
	C238.915848,221.000717 248.206390,221.000717 257.995850,221.000717 
z"/>
<path fill="#DADADA" opacity="1.000000" stroke="none" 
	d="
M226.429886,226.091553 
	C240.424637,226.055969 253.968033,226.055969 267.511414,226.055969 
	C267.508789,226.281998 267.506165,226.508011 267.503540,226.734039 
	C252.865646,226.734039 238.227753,226.734039 223.589859,226.734039 
	C223.590378,226.531738 223.590897,226.329453 223.591415,226.127151 
	C224.387115,226.127151 225.182831,226.127151 226.429886,226.091553 
z"/>
<path fill="#656565" opacity="1.000000" stroke="none" 
	d="
M229.110107,114.996933 
	C236.849869,114.997169 244.106247,114.997169 251.362640,114.997169 
	C251.360733,115.246971 251.358826,115.496773 251.356903,115.746574 
	C241.497818,115.746574 231.638733,115.746574 221.779648,115.746574 
	C221.767899,115.496613 221.756149,115.246651 221.744415,114.996689 
	C224.038513,114.996689 226.332626,114.996689 229.110107,114.996933 
z"/>
<path fill="#656565" opacity="1.000000" stroke="none" 
	d="
M219.569946,116.518356 
	C219.584579,116.542374 219.555328,116.494339 219.569946,116.518356 
z"/>
</svg>