<svg width="1024" height="1024" viewBox="0 0 1024 1024" fill="none" xmlns="http://www.w3.org/2000/svg">
<rect width="1024" height="1024" fill="#F5F5F5"/>
<path d="M268.788 557.319C272.83 563.138 274.781 569.195 274.269 575.962C273.541 585.58 276.679 594.728 277.666 604.127C279.099 617.781 282.305 631.291 280.485 645.236C279.239 654.778 274.52 662.101 267.509 668.094C264.679 670.513 264.011 672.684 265.912 675.75C265.999 675.891 266.083 676.044 266.123 676.202C268.75 686.564 274.432 691.386 285.995 689.955C294.715 688.876 302.396 693.234 308.407 700.001C324 717.558 339.913 734.836 355.242 752.619C363.976 762.751 366.884 774.696 361.643 787.521C359.856 791.895 360.929 794.042 364.814 795.667C365.272 795.858 365.708 796.122 366.116 796.407C373.9 801.832 380.443 804.196 389.175 795.938C397.678 787.896 409.69 788.029 420.937 791.341C440.247 797.029 459.53 802.815 478.747 808.81C495.945 814.175 500.404 824.387 504.327 839.511C509.401 839.963 514.728 839.602 519.956 840.493C522.198 840.875 522.905 838.831 523.564 837.043C528.79 822.878 536.723 811.637 552.435 807.312C569.911 802.501 587.104 796.676 604.509 791.596C618.802 787.424 631.924 790.204 643.261 799.883C646.086 802.295 648.295 802.581 651.125 800.596C651.397 800.406 651.686 800.228 651.989 800.095C660.432 796.375 665.363 792.076 662.207 780.861C659.323 770.608 663.025 760.489 670.813 751.969C684.297 737.218 697.23 721.951 710.06 706.622C719.964 694.789 732.218 688.805 747.665 689.833C751.583 690.094 753.254 688.402 755.277 685.097C760.716 676.208 761.15 669.594 752.2 661.859C743.356 654.216 742.71 642.497 743.928 631.18C745.989 612.038 748.877 593 750.858 573.839C752.454 558.407 759.583 546.292 775.375 541.148C777.854 540.341 778.84 538.906 778.707 536.372C778.576 533.879 778.801 531.364 778.612 528.878C778.018 521.065 776.323 519.302 768.82 518.086C757.626 516.271 748.582 510.737 743.305 500.734C732.581 480.411 722.232 459.881 713.073 438.782C702.638 414.745 715.89 386.107 746.33 380.797C768.047 377.008 781.808 384.621 791.797 404.438C801.245 423.18 810.636 441.952 820.27 460.599C827.508 474.61 826.891 488.071 818.326 501.22C816.581 503.898 814.435 506.487 811.632 507.843C807.516 509.833 806.881 512.925 807.319 516.844C808.021 523.119 808.781 529.391 809.286 535.684C809.528 538.709 811.612 539.445 813.84 540.227C831.405 546.395 838.835 557.639 839.512 576.248C840.06 591.315 836.196 605.602 833.914 620.191C832.349 630.192 831.329 640.298 829.303 650.201C825.737 667.633 812.447 678.955 794.712 680.286C792.192 680.475 790.241 680.908 789.083 683.469C786.205 689.834 783.255 696.171 780.151 702.428C779.051 704.645 779.045 706.055 780.891 708.061C794.325 722.662 795.305 741.045 782.735 756.355C770.588 771.152 757.524 785.193 745.106 799.774C739.367 806.513 733.763 813.277 726.456 818.438C714.449 826.919 701.881 826.981 689.244 820.503C684.696 818.172 681.031 817.798 676.723 820.563C672.949 822.985 668.924 825.063 664.854 826.959C662.012 828.284 661.025 830.059 661.242 833.187C661.749 840.507 661.738 847.756 658.58 854.735C654.83 863.02 649.265 869.689 640.708 872.613C617.575 880.518 594.214 887.923 570.398 893.335C553.306 897.219 535.797 891.625 526.94 873.896C525.281 870.575 522.777 869.371 519.355 869.345C518.355 869.338 517.339 869.439 516.358 869.299C506.774 867.933 499.664 869.803 494.78 879.852C490.37 888.926 480.527 891.593 470.89 893.366C459.546 895.453 449.176 891.566 438.645 888.673C423.893 884.62 409.189 880.384 394.498 876.114C375.284 870.53 365.19 856.957 365.783 836.927C365.929 831.995 364.97 828.944 360.068 826.899C355.347 824.929 351.052 821.895 346.678 819.158C344.418 817.744 342.494 817.674 340.247 819.172C322.151 831.235 300.892 824.009 288.986 810.338C279.684 799.658 270.315 789.037 260.959 778.404C254.688 771.276 248.27 764.271 242.641 756.606C231.628 741.611 231.537 725.794 242.815 710.995C245.626 707.307 246.335 704.336 243.996 700.214C240.96 694.863 238.47 689.204 235.747 683.676C234.928 682.015 234.194 680.722 231.793 680.613C213.437 679.78 199.226 667.954 195.916 649.553C191.595 625.53 187.748 601.4 185.156 577.117C183.588 562.43 193.448 547.536 208.605 542.442C214.815 540.355 216.479 536.751 216.699 531.175C216.777 529.191 217.279 527.227 217.422 525.243C217.941 518.028 219.004 511.686 211.483 505.743C198.276 495.309 197.143 480.248 203.585 465.773C213.601 443.271 224.294 420.99 236.135 399.402C248.203 377.399 280.839 373.886 300.04 391.247C314.939 404.718 319.364 423.729 310.124 441.806C301.197 459.268 295.387 478.217 285.82 495.449C281.522 503.189 275.574 509.39 268.423 514.413C263.874 517.61 258.762 519.619 253.011 519.414C249.761 519.298 247.15 520.532 247.259 524.074C247.395 528.485 246.586 532.684 245.614 536.897C245.028 539.44 245.64 540.984 248.427 541.664C257.345 543.841 263.653 549.548 268.788 557.319ZM271.607 463.156C276.927 451.355 283.569 440.169 287.732 427.82C289.625 422.205 288.007 417.286 284.352 413.602C279.954 409.169 274.784 404.979 267.65 406.603C264.679 407.28 262.125 408.926 260.465 411.623C259.333 413.463 258.151 415.295 257.245 417.248C248.563 435.956 237.947 453.663 228.896 472.177C228.124 473.756 226.533 475.486 228.904 478.293C233.11 470.232 239.349 473.304 245.122 475.03C251.428 476.915 255.616 480.998 255.732 488.564C259.194 486.908 261.228 484.627 262.627 481.797C265.571 475.839 268.401 469.825 271.607 463.156ZM764.507 410.982C759.346 405.973 753.62 405.047 747.164 408.387C739.275 412.468 736.5 416.959 737.199 425.047C737.603 429.727 738.769 434.306 740.837 438.452C748.12 453.056 755.659 467.532 763.148 482.033C764.091 483.859 764.676 486.201 768.076 486.313C768.895 479.741 773.216 475.808 778.736 472.529C785.679 468.405 790.505 472.982 796.304 476.987C796.297 472.597 794.554 469.905 793.233 467.183C786.906 454.147 780.499 441.15 774.011 428.193C771.182 422.544 768.766 416.658 764.507 410.982ZM299.75 781.751C306.111 786.862 309.237 795.658 318.198 798.244C313.263 792.028 310.125 785.937 315.723 778.769C320.496 772.655 326.452 769.56 334.183 772.129C335.398 769.332 334.008 767.539 332.797 766.188C318.66 750.424 304.404 734.768 290.179 719.083C289.759 719.219 289.34 719.355 288.921 719.49C291.999 726.918 290.576 733.182 284.265 737.701C277.136 742.805 269.9 742.942 262.535 736.987C272.589 753.807 286.979 766.66 299.75 781.751ZM249.738 597.415C249.037 590.646 248.329 583.877 247.638 577.107C247.376 574.537 245.934 573.046 243.642 572.12C238.778 581.871 234.625 584.349 225.047 583.192C222.073 582.833 219.127 582.13 216.737 580.106C214.182 577.942 214.109 574.684 213.485 571.627C210.997 573.117 210.633 574.95 211.061 577.364C212.22 583.899 213.649 590.443 214.081 597.041C215.145 613.329 219.766 629.044 221.385 645.231C221.774 649.127 224.463 651.552 228.11 653.367C226.214 641.576 226.504 638.71 230.252 636.474C233.875 634.312 238.062 633.781 242.1 632.772C247.234 631.489 249.817 635.191 253.836 639.031C253.728 624.419 251.415 611.398 249.738 597.415ZM804.744 638.366C807.717 616.726 811.849 595.208 811.939 572.848C808.595 580.419 803.525 583.757 795.44 583.343C786.867 582.903 783.074 577.529 780.642 570.157C778.544 572.088 777.758 574 777.48 575.916C776.002 586.096 774.611 596.291 773.361 606.501C772.353 614.734 772.025 623.079 770.503 631.206C769.887 634.49 769.941 636.107 773.552 637.447C777.841 629.132 784.881 630.427 791.633 633.225C798.981 636.269 799.448 643.094 798.747 650.644C803.786 647.816 803.534 643.153 804.744 638.366ZM709.602 797.325C712.376 796.712 714.208 794.804 715.952 792.75C720.251 787.688 724.483 782.565 728.901 777.608C738.859 766.436 749.799 756.142 758.82 744.133C760.439 741.978 762.44 739.956 762.047 735.863C755.638 742.065 749.09 743.368 742.178 738.552C734.758 733.383 734.982 726.448 738.555 718.885C733.792 719.945 691.89 765.966 689.689 772.466C692.621 772.044 695.321 771.601 698.035 771.275C704.404 770.511 707.596 775.031 710.757 779.272C713.692 783.211 714.354 787.348 710.938 791.627C709.753 793.113 707.361 794.538 709.602 797.325ZM620.357 851.767C623.502 850.637 627.117 850.344 629.763 846.365C622.066 845.593 615.408 844.127 612.604 836.23C609.927 828.688 609.786 822.167 618.303 817.523C606.445 815.013 597.065 821.852 586.808 824.251C576.067 826.763 565.582 830.373 553.928 833.815C560.515 838.278 566.786 841.237 568.941 848.509C571.453 856.988 563.221 860.342 560.945 867.174C581.345 865.125 600.19 857.41 620.357 851.767ZM452.378 864.967C456.934 865.838 461.567 868.668 466.446 864.786C454.268 856.737 455.335 843.606 468.472 835.323C468.022 833.066 466.105 832.768 464.359 832.356C460.973 831.558 457.472 831.139 454.183 830.063C441.703 825.984 429.05 822.427 416.78 817.693C414.622 816.86 411.968 815.028 408.96 818.442C418.175 822.891 416.109 828.984 413.275 836.736C409.838 846.138 401.683 844.518 395.013 847.293C413.655 854.304 432.668 859.372 452.378 864.967ZM761.068 717.566C760.549 715.775 759.947 713.406 757.571 715.128C755.49 716.636 755.826 719.303 756.733 721.556C757.251 722.844 758.42 723.88 759.888 723.378C762.692 722.42 761.346 720.155 761.068 717.566Z" fill="black"/>
<path d="M542.112 750.311C501.689 753.971 462.478 751.34 425.104 735.29C401.913 725.33 382.358 710.649 369.532 688.411C357.771 668.019 353.789 645.906 356.286 622.52C360.877 579.506 381.591 544.194 408.822 511.966C422.612 495.646 438.111 480.974 453.27 465.972C455.47 463.795 457.928 462.869 460.897 462.994C493.543 464.36 526.187 463.724 558.822 462.683C564.107 462.515 567.804 464.343 571.589 467.943C591.528 486.909 611.044 506.226 627.75 528.208C646.637 553.059 660.801 580.059 666.717 611.03C676.191 660.628 656.842 705.408 610.055 730.291C588.887 741.549 566.4 748.142 542.112 750.311ZM518.037 510.387C515.372 510.393 512.706 510.371 510.041 510.412C504.32 510.502 502.969 511.64 502.47 517.332C502.194 520.476 502.072 523.681 502.354 526.816C502.755 531.281 501.027 533.414 496.599 534.399C481.613 537.734 471.745 547.284 465.667 561.027C457.64 579.178 464.355 598.123 481.982 607.242C490.159 611.472 499.013 613.889 507.725 616.68C513.744 618.607 519.962 620.059 525.568 623.052C529.895 625.361 534.791 627.552 537.183 631.882C540.637 638.133 537.913 648.569 532.608 653.484C522.82 662.551 511.436 663.034 499.49 659.391C493.114 657.447 488.979 652.767 486 646.819C484.497 643.818 486.446 638.996 482.231 637.777C478.988 636.84 475.298 637.433 471.807 637.377C470.475 637.356 469.14 637.381 467.81 637.454C459.412 637.915 457.558 640.354 459.938 648.586C463.556 661.095 470.852 670.461 483.368 675.292C487.892 677.037 492.484 678.512 497.22 679.397C501.101 680.123 502.498 682.198 502.329 685.988C502.137 690.311 502.419 694.656 502.204 698.978C502.025 702.582 503.308 704.23 507.05 704.066C511.374 703.878 515.716 703.833 520.04 703.995C523.553 704.126 524.79 702.612 524.671 699.236C524.518 694.91 524.831 690.566 524.609 686.246C524.4 682.176 526.015 680.375 530.057 679.463C549.801 675.01 558.775 660.124 563.334 642.409C565.532 633.865 562.902 624.932 557.891 617.139C551.286 606.867 541.005 602.512 529.944 599.298C518.308 595.916 506.305 593.545 495.916 586.755C490.059 582.927 488.628 578.876 490.971 572.384C491.25 571.609 491.458 570.798 491.599 569.986C493.433 559.41 497.975 555.105 509.517 553.036C518.164 551.486 529.316 555.502 532.066 563.178C535.076 571.575 540.403 572.602 547.634 571.727C548.455 571.628 549.301 571.666 550.131 571.715C562.793 572.462 565.429 571.203 557.834 558.635C551.413 548.01 544.049 538.475 531.251 535.237C525.957 533.897 523.86 530.971 524.588 525.565C524.962 522.784 524.468 519.896 524.69 517.081C525.029 512.774 523.501 510.329 518.037 510.387Z" fill="black"/>
<path d="M304.168 203.828C322.079 197.156 339.708 190.541 357.373 184.02C363.986 181.579 367.019 183.45 367.845 190.365C368.219 193.493 367.857 196.469 366.681 199.57C362.343 211.009 359.398 222.896 355.887 234.603C349.216 256.852 342.462 279.077 335.752 301.314C335.202 303.139 334.364 304.913 334.425 306.832C335.916 307.937 337.162 307.028 338.335 306.639C347.787 303.505 357.215 300.298 366.65 297.113C372.04 295.294 375.814 291.837 377.863 286.477C379.55 282.063 381.025 277.593 382.335 273.053C382.884 271.147 382.789 268.1 385.938 268.467C390.165 268.959 393.629 269.811 394.303 273.52C395.231 278.633 396.221 283.734 397.154 288.846C397.696 291.816 397.964 294.853 398.737 297.759C399.747 301.552 397.735 303.095 394.649 304.128C385.779 307.096 376.902 310.046 368.047 313.056C349.53 319.348 331.015 325.645 312.52 332.002C305.679 334.353 302.984 332.685 302.376 325.567C302.176 323.223 302.567 321.001 303.279 318.794C314.759 283.214 326.232 247.631 337.709 212.05C338.112 210.8 338.717 209.594 338.508 208.198C337.154 207.163 335.914 208.017 334.73 208.459C324.717 212.201 314.699 215.932 304.729 219.787C299.378 221.856 295.993 225.692 294.786 231.407C293.938 235.418 292.364 239.294 292.642 243.497C292.795 245.822 291.475 246.366 289.456 246.333C284.27 246.251 282.457 244.822 281.473 239.787C280.037 232.437 278.689 225.069 277.193 217.731C276.584 214.744 277.346 213.049 280.487 212.038C288.348 209.509 296.103 206.65 304.168 203.828Z" fill="black"/>
<path d="M438.09 375.656C448.8 375.122 458.797 376.991 468.732 378.93C472.107 379.589 473.972 378.61 476.054 376.359C482.157 369.761 488.176 363.084 496.041 358.385C508.109 351.175 516.05 351.527 527.167 360.121C533.378 364.923 538.94 370.433 544.396 376.049C546.851 378.576 549.185 379.773 553.147 378.886C564.848 376.265 576.763 375.221 588.804 375.623C601.479 376.047 605.976 383.716 599.366 394.529C588.675 412.019 577 428.849 564.582 445.162C562.412 448.013 559.789 449.387 556.068 449.376C526.911 449.289 497.754 449.303 468.597 449.418C464.722 449.433 462.054 448.091 459.702 445.028C447.413 429.027 436.087 412.374 425.492 395.216C424.532 393.661 423.648 392.039 422.919 390.366C420.266 384.282 422.963 378.563 429.207 376.501C431.985 375.583 434.786 375.708 438.09 375.656Z" fill="black"/>
<path d="M736.188 234.878C741.251 247.754 738.726 259.976 734.519 272.03C729.637 286.015 724.503 299.91 719.485 313.847C717.31 319.889 719.321 323.778 725.363 324.31C728.821 324.615 729.619 326.729 729.855 329.339C730.135 332.433 730.631 335.966 726.884 337.484C711.16 343.857 691.442 338.084 688.313 320.616C687.695 317.166 685.525 317.489 682.904 318.452C674.258 321.631 665.524 323.132 656.271 320.842C639.674 316.734 631.073 300.93 633.365 285.624C635.844 269.063 645.974 258.471 659.181 257.839C667.846 257.423 676.387 258.311 684.866 260.081C690.117 261.177 695.338 262.405 700.324 264.38C703.804 265.758 705.564 264.75 706.609 261.232C708.341 255.4 711.457 250.004 710.868 243.512C709.973 233.629 701.978 225.829 692.103 225.073C683.931 224.447 676.924 227.306 670.167 231.321C667.031 233.184 664.505 233.017 661.935 230.068C656.556 223.895 656.625 220.222 663.009 215.064C668.559 210.579 675.317 209.281 682.144 208.414C699.019 206.269 713.307 212.696 726.588 222.256C730.93 225.381 733.919 229.659 736.188 234.878ZM665.625 298.898C667.304 300.131 668.879 301.552 670.68 302.564C680.521 308.097 692.738 303.424 696.447 292.808C697.731 289.136 698.885 285.4 700.453 281.853C701.637 279.173 701.067 277.602 698.469 276.601C690.437 273.508 682.059 272.052 673.586 273.226C663.948 274.562 655.902 289.721 665.625 298.898Z" fill="black"/>
<path d="M514.689 204.546C516.546 212.971 517.717 221.064 516.505 229.368C516.177 231.616 515.235 232.705 513.063 233.251C509.396 234.172 505.742 233.734 502.089 233.488C488.404 232.566 474.777 234.304 461.11 234.38C457.621 234.399 454.084 234.865 450.557 234.777C448.277 234.721 447.263 235.708 447.608 237.991C449.61 251.23 458.232 266.236 473.127 269.876C482.788 272.238 491.765 270.725 500.11 265.4C501.717 264.375 503.05 262.885 504.715 261.996C507.354 260.586 509.346 255.963 513.248 259.686C517.193 263.45 517.6 269.825 514.176 273.42C502.766 285.404 489.149 293.431 472.265 292.982C454.341 292.506 438.564 286.544 427.861 270.877C422.807 263.478 420.938 255.048 419.655 246.45C418.252 237.047 419.237 227.728 421.344 218.502C425.762 199.16 441.648 184.264 461.098 180.362C471.482 178.278 481.543 178.456 491.509 181.8C502.724 185.563 511 192.512 514.689 204.546ZM458.157 220.197C467.517 219.324 476.902 219.217 486.29 219.306C488.658 219.329 490.089 218.802 490.267 215.945C490.849 206.596 484.861 197.754 475.958 195.093C462.225 190.989 448.815 200.352 447.557 216.759C447.35 219.454 448.503 220.514 451.155 220.319C453.2 220.167 455.261 220.231 458.157 220.197Z" fill="black"/>
<path d="M556.715 231.933C558.162 222.221 559.514 212.891 561.042 203.591C561.658 199.838 559.578 198.864 556.629 198.66C553.435 198.439 550.235 198.587 547.1 197.561C544.716 196.781 543.92 195.296 544.006 192.921C544.256 186.045 546.067 183.745 552.609 181.575C564.014 177.792 573.999 171.461 583.285 163.878C586.101 161.579 588.837 159.017 593.097 160.382C595.79 161.245 597.017 162.514 596.405 165.513C595.288 170.994 594.457 176.534 593.368 182.022C592.632 185.73 594.006 187.507 597.68 188.072C604.883 189.179 612.048 190.544 619.236 191.753C622.443 192.293 624.338 193.881 623.95 197.409C623.693 199.749 623.393 202.088 623.026 204.413C622.175 209.789 620.021 211.257 614.769 209.594C609.042 207.78 603.178 206.608 597.35 205.251C589.979 203.534 589.74 203.493 588.596 210.894C585.852 228.643 582.57 246.317 580.936 264.228C580.735 266.427 580.87 268.664 580.936 270.881C581.143 277.849 584.727 281.096 591.664 281.513C595.362 281.735 598.871 281.991 602.225 280.087C603.142 279.566 604.348 279.353 605.13 280.134C607.731 282.731 609.087 285.9 609.084 289.667C609.081 292.943 606.981 294.299 604.392 295.315C592.48 299.989 580.365 300.134 568.337 296.22C556.218 292.277 550.99 282.15 551.921 268.695C552.768 256.468 555.329 244.479 556.715 231.933Z" fill="black"/>
</svg>
