<?xml version="1.0" encoding="UTF-8"?>
<svg version="1.1" viewBox="0 0 2000 2000" width="500" height="500" xmlns="http://www.w3.org/2000/svg">
<path transform="translate(1466,742)" d="m0 0h21l17 4 10 5 13 10 9 11 7 11 12 23 23 46 10 19 17 34 6 18 1 4v19l-5 16-4 10-8 12-8 7-7 5-3 5v9l5 40 6 4 15 6 14 10 9 9 8 14 3 9 2 15v28l-3 28-5 26-5 35-4 25-3 16-7 17-7 10-9 10-16 10-22 6-14 3-8 16-9 19-4 8v5l10 13 8 14 4 16 1 6v8l-4 20-9 16-18 22-9 10-7 8-9 10-9 11-11 12-9 11-11 12-7 8-9 10-11 10-13 8-15 6-12 2h-8l-16-4-15-6-8-3-9 1-18 10-13 7-3 1-1 34-4 13-5 12-8 11-9 9-15 8-17 5-11 4-28 9-13 4-26 7-14 4-28 7-17 2h-9l-15-2-18-8-11-9-2-4-3-1-11-17-3-5-6-2-21-1-11 1-7 3-5 4-9 13-6 9-9 7-12 5-13 4-13 2h-15l-16-3-29-8-19-5-19-6-15-4-17-5-11-3-19-7-11-7-10-9-8-11-8-18-2-14-1-22-4-5-8-5-10-5-16-10-7-1-12 7-17 6-6 1h-16l-12-3-13-5-11-6-11-9-9-9-7-8-9-11-10-11-7-8-12-14-12-13-7-8-14-17-12-16-7-12-6-16-1-7v-11l2-11 8-19 10-14 2-5-1-7-20-40-4-2-13-2-18-5-14-9-10-9-10-15-5-14-5-23-4-26-4-23-3-24-4-24-2-21v-26l4-13 8-13 9-10 11-8 15-7 6-3 5-6 3-12 1-7v-26l-4-8-9-10-10-10-6-9-4-13-1-5v-14l4-18 4-9 9-20 7-16 8-16 8-17 9-17 8-16 14-27 8-11 9-9 11-7 10-5 13-3 6-1h21l20 4 17 9 9 7 3 2v2l4 2 10 13 8 15 3 9 1 5 1 16-2 17-4 12-12 26-12 28-14 33-8 16-7 13-9 12-9 10-14 11-10 6-15 3-12 2-3 3-3 25v12l13 4 13 8 10 9 10 14 7 14 1 4 1 29 2 15 4 21 4 34 3 22v26l-4 16-4 11-10 14-9 8-3 5v7l3 10 5 9 4 5 8 5 7 1h23l9 2 14 8 12 11 7 8 9 10 7 8 11 12 9 10 7 8 18 20 9 11 11 12 11 15 5 11 3 11 1 11-2 11-4 16v6l3 3 11 7 12 6h12l11-6 11-9 12-6 6-1h25l14 3 20 6 19 6 18 5 16 5 23 7 27 9 14 9 5 4 8 11 7 14 5 17 1 1 32 2 5-8 5-13 10-16 11-12 12-9 20-8 19-5 39-12 22-7 12-3 12-4 5-1h30l10 3 16 8 15 11 5 1 20-11 6-7 1-3v-18l-1-6v-19l2-9 8-15 9-11 13-14 9-11 12-13 9-11 24-28 9-11 15-15 14-9 15-6 12-2 24-1 5-4 7-12 2-9v-10l-4-10-13-13-6-9-4-11-2-8-1-12 2-20 2-14 3-31 5-34 3-33 7-24 8-13 9-10 14-9 12-4 3-2v-29l-3-7-5-4-10-2-11-2-17-8-10-8-8-10-7-12-4-8-10-19-8-16-13-27-8-16-8-18-8-20-3-12v-24l3-12 7-16 8-11 7-8 12-9 16-8 15-4zm-943 51-10 5-8 11-21 42-12 22-12 23-10 19-6 14v4l5-2 5-5 10-1 16 3 10 6 3 1 2 5 4 13 2 1 9-7 9-17 12-26 8-16 8-17 7-15 5-12 5-16-2-11-6-9-7-7-11-7-5-1zm947 0-11 4-9 6-7 7-3 10v13l3 15 9 20 12 23 11 22 10 19 8 15 3 3 4-1 6-13 6-7 15-9h7l16 8 4 3h2l-1-5-6-15-10-21-35-70-9-16-8-7-6-3zm53 320-4 8-7 44-4 40-4 28v7l5 5 5-5 8-6 3-1h8l12 4 8 5 4 5 2 8 1 14h4l4-7 5-20 5-37 4-28 4-50v-6h-2l-6 9-6 5-12 3h-9l-12-3-7-7-5-10-2-5zm-1109 5-2 2v11l4 22 4 36 7 41 4 21 2 15 9 9h3l-1-9-1-12 3-7 8-6 6-2 12-2h9l8 5 4 4h3l-1-25-6-46-3-32-3-18-3-6-5-1-6 10-3 3v2l-4 2-10 3h-12l-10-2-6-3-4-5-3-10zm1067 277-3 3-1 2v8l3 4 7-1 1-5-3-9zm-916 9 1 9v10l-2 8-7 8-13 7-4 1h-13l-8-4-5-2 6 11 13 16 9 11 11 12 7 8 13 14 7 8 11 12 14 16 11 9 4 1-2-6-5-10-1-10 3-10 8-9 14-7h15l2-1-2-7-12-14-11-12-7-8-22-24-7-8-11-12-10-11-5-5zm875 1-8 7-12 11-11 11-7 8-7 7-7 8-9 10-7 8-12 14-9 12-4 5v2h7l4-1h12l8 4 7 7 7 12v9l-7 11-1 6 4 1 8-6 11-12 9-11 10-11 7-8 31-33 7-8 14-18 4-7v-3l-6 1-9 5-4 1h-11l-13-8-4-4-3-10v-9l3-11zm-639 190v4l7 7 2 5v12l-4 13-6 8-9 5-8 2-9 1-2 2 7 4 51 17 16 4 13 4 21 6 13 3h15l2-1-1-4-6-5-7-11-1-6v-8l4-10 7-9 9-7-1-3-16-5-20-5-69-23zm389 1-15 3-16 6-24 7-15 4-16 5-21 7v2l11 7 9 7 8 13v11l-5 9-8 10-2 4 1 1h11l19-3 17-5 15-4 16-5 22-7 11-3 18-7 3-3-1-3-13-2-8-4-6-5-5-11-2-6v-11l4-8 4-5 3-2v-2z"/>
<path transform="translate(1074,903)" d="m0 0h25l12 6 13 12 15 14 34 34 7 8 13 14 7 8 12 14 11 14 14 19 16 24 15 26 12 25 6 15 7 20 7 25 7 43v32l-5 30-4 17-10 26-9 17-11 16-13 16-17 17-10 8-15 11-19 11-15 8-21 9-22 8-21 6-33 7-17 2-51 3h-31l-46-3-25-4-28-6-29-9-25-10-24-11-18-11-14-10-14-12-18-18-11-14-13-21-9-19-9-27-5-30-1-9v-25l6-45 8-30 10-28 11-24 12-23 8-13 16-24 12-16 10-13 11-13 13-15 7-8 7-7 7-8 50-50 9-7 3-1h27l48 1h19zm-81 93-9 3-3 6-1 31-2 4-19 6-16 8-10 7-5 5-10 13-7 12-6 15-2 8v23l5 15 6 11 11 12 9 7 17 9 16 6 22 7 9 3 14 4 18 8 10 6 5 5 4 5 2 9-1 15-4 9-6 8-11 8-15 6-5 1h-18l-13-3-12-5-9-8-6-9-4-18-7-3h-33l-8 3-3 5v8l7 20 9 15 4 5h2l2 4 15 10 18 8 18 4 8 4 1 4 1 37 5 3h32l6-3 1-4 1-33 3-5 9-4 12-3 15-9 12-11 7-9 6-10 6-13 6-25-1-13-4-15-9-16-11-12-10-7-16-8-9-3-16-5-15-4-13-4-9-3-18-9-9-7-4-7v-11l4-14 5-13 5-5 9-6 15-3h12l12 2 8 4 5 4 10 17 5 5 5 3 4 1h29l8-2 4-4-1-7-10-18-10-14-9-10-12-10-19-8-9-4-2-4-1-32-4-6-6-2z"/>
<path transform="translate(993,690)" d="m0 0h11l10 3 13 8 10 8 10 9 13 12 8 8 7 1 42-5 13-1h22l10 2 9 5 4 5 1 2v13l-7 14-9 14-22 33-13 19-10 13-13 18-7 6-4 1h-182l-7-4-8-9-13-18-11-15-13-19-17-26-13-21-3-7-1-6 3-9 4-5 11-5 6-1h23l39 5 14 1 6-4 8-8 7-8 12-11 13-9 14-7z"/>
<path transform="translate(1337,406)" d="m0 0h14l19 3 13 4 17 8 11 7 11 8 7 7 8 13 4 11 2 14v13l-2 17-6 20-8 22-9 26-9 25-5 14v7l5 5 13 5 3 4 1 4v8l-2 5-3 3-16 4-14 1-17-3-12-6-8-7-6-9-6-18-8 1-15 5-14 2h-13l-15-3-15-8-10-9-6-7-7-14-2-9v-23l3-14 8-16 11-12 9-6 10-4 8-1h16l24 2 35 8 14 5 4-7 6-17 2-10v-11l-2-9-6-10-9-8-9-4-5-1h-20l-12 3-20 10-7-1-5-4-6-9-1-9 4-6 9-8 12-6 19-4zm-19 127-9 2-6 4-7 8-4 10v14l5 10 9 8 13 6 4 1h8l11-4 8-5 7-8 4-8 6-18 3-6-1-4-9-5-9-3-18-2z"/>
<path transform="translate(703,357)" d="m0 0h8l4 4 3 7 1 11-7 24-5 16-16 54-9 30-5 15-4 15-5 17-8 26-7 22 1 1 17-4 14-5 33-11 10-6 7-8 4-11 6-16 3-12 1-1 13 1 6 2 4 16 5 25 2 18-4 5-12 5-37 12-31 11-36 12-29 10-27 9-6-1-6-7-1-5v-10l7-22 12-37 10-30 5-17 5-15 16-50 6-18 8-25 1-8-24 8-35 13-16 8-7 10-4 16-3 18-3 2-12-1-4-4-4-15-5-23-2-19 4-4 9-4 36-12 29-11 30-11 18-7 16-6z"/>
<path transform="translate(917,349)" d="m0 0h17l17 3 16 5 14 8 10 9 7 9 6 12 6 28v22l-5 10-2 1-77 1-33 1-18 1v8l6 20 9 16 10 11 10 7 8 4 9 2h27l11-3 14-8 14-11 1-1h6l4 5 5 10-1 9-6 8-9 9-10 8-9 6-15 7-17 5-18 2-20-2-24-6-19-10-9-7-12-12-9-14-5-11-4-16-4-18v-28l7-32 10-21 8-10 9-10 13-10 17-9 17-5zm-9 30-10 4-10 7-8 11-6 17v8l3 4h23l51-2 6-2v-15l-3-9-7-11-11-8-10-4z"/>
<path transform="translate(1149,313)" d="m0 0h8l7 3 1 1v7l-4 21-1 7v13l18 4 27 4 9 3 4 4 1 4-3 17-3 9-4 1-15-3-19-5-21-4-5 18-8 51-3 20-2 22v24l2 7 7 6 6 2h20l9-4 6 7 4 9v8l-5 5-10 5-12 3-8 1h-27l-15-3-14-6-9-7-7-10-5-16v-23l6-47 8-55 3-16v-9l-3-2-5-1-17-1-5-3-3-7 1-8 4-8 5-4 15-6 14-6 17-10 14-10 10-8z"/>
</svg>
