<?xml version="1.0" encoding="UTF-8"?>
<svg version="1.1" xmlns="http://www.w3.org/2000/svg" width="500" height="500">
<path d="M0 0 C4.56634734 4.10749234 6.96750004 9.27919531 9.63671875 14.7265625 C10.15403564 15.75539551 10.67135254 16.78422852 11.2043457 17.84423828 C12.21865042 19.86389844 13.22726459 21.88642898 14.22949219 23.91210938 C15.33238118 26.11788736 16.46575614 28.29525301 17.64453125 30.4609375 C21.65846875 37.94586444 23.83622419 43.97634687 21.44921875 52.3515625 C20.2591305 55.58417429 19.62451124 56.55945716 16.88671875 58.8515625 C13.052821 63.41079226 14.19738622 68.88208217 14.57421875 74.6015625 C15.50234375 74.7253125 16.43046875 74.8490625 17.38671875 74.9765625 C20.57421875 75.6015625 20.57421875 75.6015625 23.57421875 77.6015625 C23.57421875 78.2615625 23.57421875 78.9215625 23.57421875 79.6015625 C24.23421875 79.6015625 24.89421875 79.6015625 25.57421875 79.6015625 C26.26409115 81.04906263 26.92465429 82.51053161 27.57421875 83.9765625 C27.94546875 84.78867187 28.31671875 85.60078125 28.69921875 86.4375 C31.11745884 95.1820289 29.08999515 104.37508635 27.65771484 113.16113281 C27.32403211 115.22771844 27.0130766 117.29692623 26.703125 119.3671875 C24.11173271 135.95463922 24.11173271 135.95463922 17.32421875 141.4765625 C14.67087426 143.2245813 12.57326412 143.84698061 9.44921875 144.2890625 C6.61889449 144.87292114 5.71380403 145.44129792 3.78125 147.66015625 C2.18862115 150.35002041 1.15653019 152.52623022 0.57421875 155.6015625 C1.49485691 157.88545333 2.75556389 159.4686285 4.26171875 161.41015625 C6.90576191 165.82476402 6.4735682 170.68120864 5.57421875 175.6015625 C2.74601997 182.18297245 -2.74088357 187.36596851 -7.5703125 192.53515625 C-9.46777123 194.46485896 -9.46777123 194.46485896 -10.42578125 196.6015625 C-11.08578125 196.6015625 -11.74578125 196.6015625 -12.42578125 196.6015625 C-12.67328125 197.1584375 -12.92078125 197.7153125 -13.17578125 198.2890625 C-14.65502943 201.02567163 -16.36045564 203.27807119 -18.42578125 205.6015625 C-19.08578125 205.6015625 -19.74578125 205.6015625 -20.42578125 205.6015625 C-20.42578125 206.2615625 -20.42578125 206.9215625 -20.42578125 207.6015625 C-21.08578125 207.6015625 -21.74578125 207.6015625 -22.42578125 207.6015625 C-22.42578125 208.2615625 -22.42578125 208.9215625 -22.42578125 209.6015625 C-23.08578125 209.6015625 -23.74578125 209.6015625 -24.42578125 209.6015625 C-24.42578125 210.2615625 -24.42578125 210.9215625 -24.42578125 211.6015625 C-28.93246493 214.19290562 -33.19263322 215.82635408 -38.42578125 215.6015625 C-40.29255089 215.08241763 -42.14684817 214.51694265 -43.98828125 213.9140625 C-47.53083768 212.87589666 -50.00257187 212.17096928 -53.48828125 213.6015625 C-56.00195697 215.37836874 -56.3999445 216.4922307 -57.1171875 219.52734375 C-57.41029281 221.81673389 -57.6845485 224.108604 -57.94140625 226.40234375 C-58.63074234 230.95529742 -59.82075504 233.69818569 -63.42578125 236.6015625 C-67.2183544 238.8592104 -71.25174279 240.23282454 -75.42578125 241.6015625 C-76.29831543 241.89627441 -77.17084961 242.19098633 -78.06982422 242.49462891 C-103.4690525 250.94969116 -103.4690525 250.94969116 -115.42578125 248.6015625 C-118.85546875 246.68359375 -118.85546875 246.68359375 -121.42578125 244.6015625 C-121.42578125 243.9415625 -121.42578125 243.2815625 -121.42578125 242.6015625 C-122.08578125 242.6015625 -122.74578125 242.6015625 -123.42578125 242.6015625 C-123.61140625 241.9621875 -123.79703125 241.3228125 -123.98828125 240.6640625 C-125.34717728 238.24010894 -125.34717728 238.24010894 -128.73828125 237.7265625 C-132.45755395 237.60048546 -134.27761884 237.67768547 -137.42578125 239.6015625 C-137.85890625 240.3853125 -138.29203125 241.1690625 -138.73828125 241.9765625 C-141.23146541 245.85484897 -144.03272177 247.32682137 -148.42578125 248.6015625 C-155.25193699 249.37628383 -161.39366659 249.04061884 -167.78515625 246.51953125 C-171.43294467 245.25143912 -175.15795477 244.49334101 -178.92578125 243.6640625 C-195.91747531 239.78056223 -195.91747531 239.78056223 -201.42578125 231.6015625 C-202.76782224 229.11878667 -203.43085814 227.29582705 -203.41015625 224.46484375 C-203.42702616 221.91326998 -203.55557432 220.00870206 -204.42578125 217.6015625 C-207.44376618 214.89537718 -210.47603417 213.47418104 -214.42578125 212.6015625 C-216.68301677 213.03309282 -218.37275513 213.79426527 -220.42578125 214.8125 C-225.35354964 216.75665862 -230.80064886 215.01429469 -235.48828125 213.0390625 C-236.45765625 212.5646875 -237.42703125 212.0903125 -238.42578125 211.6015625 C-238.42578125 210.9415625 -238.42578125 210.2815625 -238.42578125 209.6015625 C-239.08578125 209.6015625 -239.74578125 209.6015625 -240.42578125 209.6015625 C-245.42578125 204.12537202 -245.42578125 204.12537202 -245.42578125 201.6015625 C-246.08578125 201.6015625 -246.74578125 201.6015625 -247.42578125 201.6015625 C-248.94140625 200.09765625 -248.94140625 200.09765625 -250.67578125 198.0390625 C-251.59810547 196.95044922 -251.59810547 196.95044922 -252.5390625 195.83984375 C-253.16167969 195.10121094 -253.78429687 194.36257813 -254.42578125 193.6015625 C-255.01746094 192.93511719 -255.60914063 192.26867187 -256.21875 191.58203125 C-256.76144531 190.96972656 -257.30414063 190.35742188 -257.86328125 189.7265625 C-258.35699219 189.17226563 -258.85070312 188.61796875 -259.359375 188.046875 C-260.42578125 186.6015625 -260.42578125 186.6015625 -260.42578125 184.6015625 C-261.08578125 184.6015625 -261.74578125 184.6015625 -262.42578125 184.6015625 C-269.09544704 173.96947534 -269.09544704 173.96947534 -268.42578125 167.6015625 C-267.33688992 164.47165746 -265.88978562 161.56944685 -264.42578125 158.6015625 C-263.38067764 155.98053253 -263.38067764 155.98053253 -263.42578125 153.6015625 C-264.81671017 150.97769115 -264.81671017 150.97769115 -266.42578125 148.6015625 C-266.42578125 147.6115625 -266.42578125 146.6215625 -266.42578125 145.6015625 C-267.29589844 145.45460938 -267.29589844 145.45460938 -268.18359375 145.3046875 C-274.8752745 144.02377171 -279.89121984 142.14710523 -283.921875 136.359375 C-287.51426031 130.43816997 -288.22134656 123.85156589 -289.23828125 117.1015625 C-289.34284637 116.43503662 -289.4474115 115.76851074 -289.55514526 115.08178711 C-293.57140804 89.42771088 -293.57140804 89.42771088 -289.515625 82.1953125 C-288.82597656 81.339375 -288.13632812 80.4834375 -287.42578125 79.6015625 C-286.76578125 79.6015625 -286.10578125 79.6015625 -285.42578125 79.6015625 C-285.42578125 78.9415625 -285.42578125 78.2815625 -285.42578125 77.6015625 C-279.67578125 74.6015625 -279.67578125 74.6015625 -277.42578125 74.6015625 C-276.18962503 69.50241808 -275.7509833 64.62595635 -277.42578125 59.6015625 C-278.04453125 59.3334375 -278.66328125 59.0653125 -279.30078125 58.7890625 C-282.52622776 56.9866071 -283.17447345 55.04265896 -284.42578125 51.6015625 C-286.747059 39.08684766 -277.89824912 26.18093574 -272.3671875 15.43603516 C-271.03239029 12.83498064 -269.72877787 10.21866083 -268.42578125 7.6015625 C-267.75911458 6.26822917 -267.09244792 4.93489583 -266.42578125 3.6015625 C-265.76578125 3.6015625 -265.10578125 3.6015625 -264.42578125 3.6015625 C-264.42578125 2.9415625 -264.42578125 2.2815625 -264.42578125 1.6015625 C-263.76578125 1.6015625 -263.10578125 1.6015625 -262.42578125 1.6015625 C-262.42578125 0.9415625 -262.42578125 0.2815625 -262.42578125 -0.3984375 C-254.63401015 -3.49304162 -247.64905869 -4.52057361 -239.42578125 -2.3984375 C-239.42578125 -1.7384375 -239.42578125 -1.0784375 -239.42578125 -0.3984375 C-238.49765625 -0.181875 -238.49765625 -0.181875 -237.55078125 0.0390625 C-235.42578125 0.6015625 -235.42578125 0.6015625 -233.42578125 1.6015625 C-233.42578125 2.2615625 -233.42578125 2.9215625 -233.42578125 3.6015625 C-232.76578125 3.6015625 -232.10578125 3.6015625 -231.42578125 3.6015625 C-227.11113418 10.47803127 -226.09024923 16.55322478 -227.42578125 24.6015625 C-228.80828755 28.65444554 -230.72670365 32.4341212 -232.69140625 36.23046875 C-234.00551913 38.78470167 -235.08055336 41.1449836 -235.98828125 43.8515625 C-238.16005399 49.98918112 -241.29672674 57.40633041 -246.42578125 61.6015625 C-247.08578125 61.6015625 -247.74578125 61.6015625 -248.42578125 61.6015625 C-248.42578125 62.2615625 -248.42578125 62.9215625 -248.42578125 63.6015625 C-251.69123886 65.48548035 -254.70689886 66.09444217 -258.42578125 66.6015625 C-259.08578125 69.5715625 -259.74578125 72.5415625 -260.42578125 75.6015625 C-259.70390625 75.6840625 -258.98203125 75.7665625 -258.23828125 75.8515625 C-253.48684065 77.11861333 -251.12051497 79.69454903 -248.17578125 83.5390625 C-245.87835199 87.85822951 -245.8662522 92.26841337 -245.640625 97.078125 C-245.42433922 100.62521184 -244.93448516 104.03305229 -244.36328125 107.5390625 C-241.45764243 127.26218662 -241.45764243 127.26218662 -246.42578125 135.6015625 C-247.18890625 136.4471875 -247.95203125 137.2928125 -248.73828125 138.1640625 C-249.57359375 139.370625 -249.57359375 139.370625 -250.42578125 140.6015625 C-249.80541807 143.88260722 -249.80541807 143.88260722 -248.42578125 146.6015625 C-247.64074219 146.61574219 -246.85570312 146.62992188 -246.046875 146.64453125 C-237.47104354 147.03386348 -233.36832243 148.53209846 -227.484375 154.60546875 C-222.66065386 159.89694467 -222.66065386 159.89694467 -221.42578125 163.6015625 C-220.76578125 163.6015625 -220.10578125 163.6015625 -219.42578125 163.6015625 C-219.42578125 164.2615625 -219.42578125 164.9215625 -219.42578125 165.6015625 C-218.76578125 165.6015625 -218.10578125 165.6015625 -217.42578125 165.6015625 C-215.90593242 167.27691709 -214.45871672 169.01861872 -213.05078125 170.7890625 C-212.27992188 171.75199219 -211.5090625 172.71492187 -210.71484375 173.70703125 C-209.95945312 174.66222656 -209.2040625 175.61742187 -208.42578125 176.6015625 C-207.69746094 177.49230469 -206.96914062 178.38304687 -206.21875 179.30078125 C-201.90645484 184.83442362 -202.37368803 189.75191236 -203.13671875 196.40625 C-203.23210937 197.13070312 -203.3275 197.85515625 -203.42578125 198.6015625 C-200.10188268 200.65663778 -200.10188268 200.65663778 -196.42578125 201.6015625 C-194.26851068 200.72007896 -194.26851068 200.72007896 -192.17578125 199.2890625 C-186.00240066 195.48214447 -181.10195298 195.51392247 -174.07666016 197.14794922 C-167.79670135 198.76245882 -161.61234398 200.664921 -155.42578125 202.6015625 C-154.14363906 202.98574561 -152.86113988 203.36874145 -151.578125 203.75 C-140.4708017 207.19093039 -140.4708017 207.19093039 -137.25 212.5625 C-134.42578125 217.93919137 -134.42578125 217.93919137 -134.42578125 220.6015625 C-132.11578125 220.6015625 -129.80578125 220.6015625 -127.42578125 220.6015625 C-127.19503906 220.08207031 -126.96429688 219.56257812 -126.7265625 219.02734375 C-123.64728434 212.44280034 -119.96371676 208.00299823 -113.42578125 204.6015625 C-110.00619696 203.43681165 -106.536225 202.4854573 -103.05078125 201.5390625 C-102.13039063 201.28318359 -101.21 201.02730469 -100.26171875 200.76367188 C-98.46657919 200.26487953 -96.67038035 199.76988083 -94.87304688 199.27905273 C-92.75917819 198.69385864 -90.65928697 198.07557712 -88.55859375 197.4453125 C-80.23808544 195.20437759 -74.43084797 196.53669511 -66.96875 200.703125 C-64.39259142 201.8951015 -64.39259142 201.8951015 -61.6015625 200.75 C-60.88355469 200.37101563 -60.16554688 199.99203125 -59.42578125 199.6015625 C-59.4721875 198.58835937 -59.51859375 197.57515625 -59.56640625 196.53125 C-59.60394883 195.17971718 -59.64034631 193.82815222 -59.67578125 192.4765625 C-59.70929688 191.81140625 -59.7428125 191.14625 -59.77734375 190.4609375 C-59.92107167 183.13081369 -56.11856915 179.14988595 -51.36328125 174.0390625 C-48.22086463 170.61708987 -45.18391387 167.14054714 -42.22143555 163.56396484 C-30.34544639 149.24910182 -30.34544639 149.24910182 -23.42578125 147.6015625 C-20.41716102 147.45902212 -17.43475339 147.48356359 -14.42578125 147.6015625 C-12.88146344 143.68240993 -12.88146344 143.68240993 -12.42578125 139.6015625 C-13.69286621 137.24537777 -15.1552533 135.44352023 -16.9453125 133.4609375 C-20.3894207 129.13535569 -19.45212421 123.81466764 -19.17578125 118.6015625 C-19.1298584 117.72669189 -19.08393555 116.85182129 -19.03662109 115.95043945 C-18.64761103 109.52144562 -17.97125939 103.16307477 -17.05078125 96.7890625 C-16.93702148 95.97244141 -16.82326172 95.15582031 -16.70605469 94.31445312 C-15.76725986 88.27111788 -14.59136605 81.62765519 -9.42578125 77.7265625 C-6.42578125 75.6015625 -6.42578125 75.6015625 -3.42578125 74.6015625 C-3.42578125 71.9615625 -3.42578125 69.3215625 -3.42578125 66.6015625 C-4.42158203 66.36373047 -4.42158203 66.36373047 -5.4375 66.12109375 C-6.32050781 65.88777344 -7.20351563 65.65445313 -8.11328125 65.4140625 C-9.41845703 65.08341797 -9.41845703 65.08341797 -10.75 64.74609375 C-17.4640343 61.87425134 -20.23660402 55.78261675 -23.36328125 49.6015625 C-23.79568115 48.76302734 -24.22808105 47.92449219 -24.67358398 47.06054688 C-36.60573139 23.75351656 -36.60573139 23.75351656 -35.42578125 11.6015625 C-34.3794566 8.59966166 -33.10445417 6.329406 -31.42578125 3.6015625 C-30.76578125 3.6015625 -30.10578125 3.6015625 -29.42578125 3.6015625 C-29.42578125 2.9415625 -29.42578125 2.2815625 -29.42578125 1.6015625 C-20.1863805 -4.29592734 -9.45972438 -7.21991332 0 0 Z M-254.42578125 13.6015625 C-255.83646575 16.09167765 -257.09420661 18.5175018 -258.30078125 21.1015625 C-258.994322 22.54252076 -259.68964642 23.98262184 -260.38671875 25.421875 C-260.72799805 26.12989258 -261.06927734 26.83791016 -261.42089844 27.56738281 C-263.26996287 31.3104355 -265.33330823 34.93343181 -267.39453125 38.5625 C-268.57621849 40.51818362 -268.57621849 40.51818362 -268.42578125 42.6015625 C-267.73871094 42.69953125 -267.05164063 42.7975 -266.34375 42.8984375 C-265.44269531 43.04796875 -264.54164063 43.1975 -263.61328125 43.3515625 C-262.71996094 43.49078125 -261.82664062 43.63 -260.90625 43.7734375 C-257.92005467 44.7704035 -257.04197781 45.959806 -255.42578125 48.6015625 C-251.58001278 42.78913848 -248.43939568 36.81441062 -245.55078125 30.4765625 C-244.92816406 29.17525391 -244.92816406 29.17525391 -244.29296875 27.84765625 C-241.35763896 21.4409872 -241.35763896 21.4409872 -242.42578125 14.6015625 C-246.76522548 10.26211827 -249.80491606 9.17396543 -254.42578125 13.6015625 Z M-20.42578125 14.6015625 C-21.13475163 20.98911299 -19.77733006 24.99185042 -16.73828125 30.5390625 C-16.19397461 31.57740234 -16.19397461 31.57740234 -15.63867188 32.63671875 C-14.58523955 34.63505929 -13.51014238 36.61987051 -12.42578125 38.6015625 C-11.88308594 39.60316406 -11.34039062 40.60476562 -10.78125 41.63671875 C-9.68144502 43.63665231 -8.56756862 45.62539205 -7.42578125 47.6015625 C-7.09578125 46.6115625 -6.76578125 45.6215625 -6.42578125 44.6015625 C-5.76578125 44.6015625 -5.10578125 44.6015625 -4.42578125 44.6015625 C-4.42578125 43.9415625 -4.42578125 43.2815625 -4.42578125 42.6015625 C-3.46865234 42.52808594 -3.46865234 42.52808594 -2.4921875 42.453125 C-1.66589844 42.37835938 -0.83960938 42.30359375 0.01171875 42.2265625 C0.83542969 42.15695313 1.65914063 42.08734375 2.5078125 42.015625 C3.18972656 41.87898438 3.87164062 41.74234375 4.57421875 41.6015625 C4.90421875 40.9415625 5.23421875 40.2815625 5.57421875 39.6015625 C4.27295377 36.86710707 2.91449258 34.24645805 1.44921875 31.6015625 C0.60957885 30.0591911 -0.22896805 28.51622418 -1.06640625 26.97265625 C-1.47439453 26.2235498 -1.88238281 25.47444336 -2.30273438 24.70263672 C-4.10942825 21.32254813 -5.74517728 17.86375552 -7.35546875 14.38671875 C-8.44614642 12.27860219 -8.44614642 12.27860219 -11.42578125 10.6015625 C-15.62731621 10.6015625 -17.307944 11.83015161 -20.42578125 14.6015625 Z M-262.42578125 92.6015625 C-263.06515625 93.2821875 -263.70453125 93.9628125 -264.36328125 94.6640625 C-268.65335167 97.37818868 -271.63091466 96.48361993 -276.42578125 95.6015625 C-276.7013928 103.4229972 -275.95339262 110.62520139 -274.42578125 118.2890625 C-274.235 119.28873047 -274.04421875 120.28839844 -273.84765625 121.31835938 C-273.38265721 123.74797938 -272.90863029 126.1754387 -272.42578125 128.6015625 C-272.09578125 128.6015625 -271.76578125 128.6015625 -271.42578125 128.6015625 C-270.76578125 126.2915625 -270.10578125 123.9815625 -269.42578125 121.6015625 C-265.79578125 121.2715625 -262.16578125 120.9415625 -258.42578125 120.6015625 C-258.40515625 119.3640625 -258.38453125 118.1265625 -258.36328125 116.8515625 C-258.35167969 116.15546875 -258.34007812 115.459375 -258.328125 114.7421875 C-258.3514865 112.62852671 -258.3514865 112.62852671 -258.90234375 110.74609375 C-259.86987158 106.7821178 -259.83010297 102.66097878 -260.046875 98.59765625 C-260.22198253 95.42417881 -260.22198253 95.42417881 -262.42578125 92.6015625 Z M-0.42578125 93.6015625 C-2.38128836 97.81658412 -3.03282339 101.96659844 -3.55078125 106.5390625 C-3.63714844 107.22935547 -3.72351563 107.91964844 -3.8125 108.63085938 C-4.29165513 112.64283292 -4.51426766 116.56278995 -4.42578125 120.6015625 C-3.18828125 120.3953125 -1.95078125 120.1890625 -0.67578125 119.9765625 C1.81313432 119.68582192 3.53967201 119.59447599 6.01171875 120.1015625 C8.5242139 122.51355785 8.32636738 125.25556898 8.57421875 128.6015625 C8.88359375 127.9828125 9.19296875 127.3640625 9.51171875 126.7265625 C10.19921875 125.3515625 10.88671875 123.9765625 11.57421875 122.6015625 C13.29759686 113.58213105 13.84826151 104.76677052 13.57421875 95.6015625 C12.37796875 95.8284375 11.18171875 96.0553125 9.94921875 96.2890625 C5.70329915 96.84813376 3.23868602 95.89185454 -0.42578125 93.6015625 Z M-11.42578125 161.6015625 C-10.42578125 163.6015625 -10.42578125 163.6015625 -10.42578125 163.6015625 Z M-239.42578125 165.6015625 C-239.61140625 166.5090625 -239.79703125 167.4165625 -239.98828125 168.3515625 C-241.96010487 172.8095985 -244.10539196 173.52137506 -248.42578125 175.6015625 C-245.72360191 181.00592118 -242.52377315 184.75577794 -238.1328125 188.90234375 C-236.42578125 190.6015625 -236.42578125 190.6015625 -235.42578125 192.6015625 C-234.76578125 192.6015625 -234.10578125 192.6015625 -233.42578125 192.6015625 C-233.42578125 193.2615625 -233.42578125 193.9215625 -233.42578125 194.6015625 C-232.76578125 194.6015625 -232.10578125 194.6015625 -231.42578125 194.6015625 C-231.09578125 195.5915625 -230.76578125 196.5815625 -230.42578125 197.6015625 C-230.13703125 197.0240625 -229.84828125 196.4465625 -229.55078125 195.8515625 C-229.17953125 195.1090625 -228.80828125 194.3665625 -228.42578125 193.6015625 C-228.17828125 192.9003125 -227.93078125 192.1990625 -227.67578125 191.4765625 C-225.8292567 188.70677567 -223.55067802 188.41675296 -220.42578125 187.6015625 C-221.87498713 182.90682967 -224.64634774 179.87580925 -227.98828125 176.4140625 C-233.32186559 170.80939383 -233.32186559 170.80939383 -234.42578125 168.6015625 C-235.08578125 168.6015625 -235.74578125 168.6015625 -236.42578125 168.6015625 C-236.42578125 167.9415625 -236.42578125 167.2815625 -236.42578125 166.6015625 C-237.41578125 166.2715625 -238.40578125 165.9415625 -239.42578125 165.6015625 Z M-27.17260742 169.20922852 C-27.66865479 169.70994873 -28.16470215 170.21066895 -28.67578125 170.7265625 C-29.17505127 171.22921631 -29.67432129 171.73187012 -30.1887207 172.24975586 C-36.34448997 177.64619075 -36.34448997 177.64619075 -39.42578125 184.6015625 C-40.08578125 184.6015625 -40.74578125 184.6015625 -41.42578125 184.6015625 C-41.75578125 185.5915625 -42.08578125 186.5815625 -42.42578125 187.6015625 C-41.31203125 187.8696875 -40.19828125 188.1378125 -39.05078125 188.4140625 C-35.42578125 189.6015625 -35.42578125 189.6015625 -33.42578125 192.6015625 C-33.04078234 194.25705781 -32.6978499 195.9238058 -32.42578125 197.6015625 C-29.4617362 194.79351982 -26.98079106 192.41840476 -25.42578125 188.6015625 C-24.76578125 188.6015625 -24.10578125 188.6015625 -23.42578125 188.6015625 C-23.42578125 187.9415625 -23.42578125 187.2815625 -23.42578125 186.6015625 C-22.76578125 186.6015625 -22.10578125 186.6015625 -21.42578125 186.6015625 C-19.82171872 184.84404272 -18.29010748 183.01981026 -16.80078125 181.1640625 C-15.98351562 180.15472656 -15.16625 179.14539063 -14.32421875 178.10546875 C-12.32508645 175.99245816 -12.32508645 175.99245816 -12.42578125 174.6015625 C-13.51890625 174.4159375 -14.61203125 174.2303125 -15.73828125 174.0390625 C-19.42578125 172.6015625 -19.42578125 172.6015625 -20.55859375 170.91015625 C-21.36328125 168.9765625 -21.36328125 168.9765625 -22.42578125 165.6015625 C-24.52443747 165.6015625 -25.77030989 167.81320525 -27.17260742 169.20922852 Z M-179.42578125 211.6015625 C-179.19890625 212.4678125 -178.97203125 213.3340625 -178.73828125 214.2265625 C-178.35672497 218.34737033 -179.22757076 220.14723173 -181.42578125 223.6015625 C-182.41578125 224.2615625 -183.40578125 224.9215625 -184.42578125 225.6015625 C-181.66256535 227.44370643 -179.81148361 228.20976213 -176.6796875 229.109375 C-175.75994141 229.37363281 -174.84019531 229.63789063 -173.89257812 229.91015625 C-172.93416016 230.17957031 -171.97574219 230.44898438 -170.98828125 230.7265625 C-169.55645508 231.14228516 -169.55645508 231.14228516 -168.09570312 231.56640625 C-167.17466797 231.82808594 -166.25363281 232.08976562 -165.3046875 232.359375 C-164.46494385 232.5980127 -163.6252002 232.83665039 -162.76000977 233.08251953 C-160.17354909 233.74626929 -160.17354909 233.74626929 -156.42578125 233.6015625 C-156.75578125 232.6115625 -157.08578125 231.6215625 -157.42578125 230.6015625 C-157.80770127 225.4456422 -157.22337663 222.88630068 -154.42578125 218.6015625 C-157.65379774 217.61857652 -160.88338558 216.64085448 -164.11328125 215.6640625 C-165.02529297 215.38626953 -165.93730469 215.10847656 -166.87695312 214.82226562 C-168.20629883 214.42104492 -168.20629883 214.42104492 -169.5625 214.01171875 C-170.37420654 213.76558838 -171.18591309 213.51945801 -172.0222168 213.26586914 C-174.4747502 212.58802827 -176.92564302 212.07046002 -179.42578125 211.6015625 Z M-91.62890625 213.1328125 C-93.0984375 213.60654297 -93.0984375 213.60654297 -94.59765625 214.08984375 C-95.6134375 214.42371094 -96.62921875 214.75757813 -97.67578125 215.1015625 C-98.70703125 215.43542969 -99.73828125 215.76929688 -100.80078125 216.11328125 C-103.34418148 216.93753133 -105.88570718 217.76712978 -108.42578125 218.6015625 C-107.43578125 219.0965625 -107.43578125 219.0965625 -106.42578125 219.6015625 C-106.42578125 220.2615625 -106.42578125 220.9215625 -106.42578125 221.6015625 C-105.76578125 221.6015625 -105.10578125 221.6015625 -104.42578125 221.6015625 C-102.99720982 230.17299107 -102.99720982 230.17299107 -105.42578125 233.6015625 C-98.95893982 233.00473952 -93.11284928 231.47701767 -86.92578125 229.5390625 C-86.00796875 229.25740234 -85.09015625 228.97574219 -84.14453125 228.68554688 C-81.90305922 227.9967612 -79.66363094 227.30200945 -77.42578125 226.6015625 C-78.24433594 225.71210938 -79.06289063 224.82265625 -79.90625 223.90625 C-82.22679789 221.12159253 -83.01957996 219.43970545 -82.73828125 215.7265625 C-82.67060547 214.55480469 -82.67060547 214.55480469 -82.6015625 213.359375 C-82.54355469 212.77929688 -82.48554688 212.19921875 -82.42578125 211.6015625 C-86.09724902 211.6015625 -88.2106068 212.0198778 -91.62890625 213.1328125 Z " fill="#0D0D0D" transform="translate(381.42578125,188.3984375)"/>
<path d="M0 0 C2.5375069 0.07835416 5.07529571 0.14807403 7.61328125 0.20898438 C12.21648541 0.34938508 16.81456085 0.51339065 21.41210938 0.78393555 C22.78175842 0.86323555 22.78175842 0.86323555 24.17907715 0.94413757 C26.5 1.3125 26.5 1.3125 29.5 3.3125 C29.5 3.9725 29.5 4.6325 29.5 5.3125 C30.16 5.3125 30.82 5.3125 31.5 5.3125 C31.5 5.9725 31.5 6.6325 31.5 7.3125 C32.16 7.3125 32.82 7.3125 33.5 7.3125 C33.5 7.9725 33.5 8.6325 33.5 9.3125 C34.16 9.3125 34.82 9.3125 35.5 9.3125 C35.5 9.9725 35.5 10.6325 35.5 11.3125 C36.098125 11.580625 36.69625 11.84875 37.3125 12.125 C39.49847854 13.31167406 40.91332594 14.40849113 42.5 16.3125 C42.5 16.9725 42.5 17.6325 42.5 18.3125 C43.16 18.3125 43.82 18.3125 44.5 18.3125 C44.5 18.9725 44.5 19.6325 44.5 20.3125 C45.16 20.3125 45.82 20.3125 46.5 20.3125 C46.5 20.9725 46.5 21.6325 46.5 22.3125 C47.16 22.3125 47.82 22.3125 48.5 22.3125 C50.2265625 24.2109375 50.2265625 24.2109375 52.125 26.6875 C52.75664062 27.49960938 53.38828125 28.31171875 54.0390625 29.1484375 C55.5 31.3125 55.5 31.3125 55.5 33.3125 C56.16 33.3125 56.82 33.3125 57.5 33.3125 C70.5279492 48.9093406 78.608418 71.34362811 77.28515625 91.6015625 C76.08833325 101.15334989 72.93699369 110.30924528 67.5 118.3125 C66.84 118.3125 66.18 118.3125 65.5 118.3125 C65.26023437 118.88226563 65.02046875 119.45203125 64.7734375 120.0390625 C57.89645063 132.31638262 42.33538579 137.64360102 29.5546875 141.27734375 C4.1614056 148.01396832 -26.2472838 145.88560919 -49.6875 133.6484375 C-63.66420542 125.1459417 -72.95666778 114.06062901 -77.0859375 98.0390625 C-80.52809509 75.37277948 -72.77622048 53.95634637 -60.19921875 35.375 C-59.35810547 34.3540625 -59.35810547 34.3540625 -58.5 33.3125 C-57.84 33.3125 -57.18 33.3125 -56.5 33.3125 C-56.231875 32.57 -55.96375 31.8275 -55.6875 31.0625 C-54.54723249 28.42188051 -53.40619694 26.45697156 -51.5 24.3125 C-50.84 24.3125 -50.18 24.3125 -49.5 24.3125 C-49.10862854 23.46174141 -49.10862854 23.46174141 -48.70935059 22.59379578 C-37.63599316 1.70522647 -21.77426311 -1.34576054 0 0 Z M-4.5 27.3125 C-4.47679687 27.93640625 -4.45359375 28.5603125 -4.4296875 29.203125 C-4.36662048 31.92401639 -4.48595675 33.77091926 -5.5 36.3125 C-8.93871716 38.64954417 -12.56257107 40.02164604 -16.5 41.3125 C-16.5 41.9725 -16.5 42.6325 -16.5 43.3125 C-17.16 43.3125 -17.82 43.3125 -18.5 43.3125 C-22.24594813 48.22905692 -24.60263268 52.49010138 -24.375 58.75 C-23.03418433 64.20903524 -21.86966161 67.75094375 -17.12890625 70.875 C-10.6516769 74.24983863 -3.84631102 76.80699219 3.06738281 79.13305664 C7.0752454 80.53560925 9.96358859 81.8402625 12.5 85.3125 C12.99583055 88.47690174 12.44071807 91.26636531 11.5 94.3125 C8.7561336 97.85297277 6.02612712 98.60492328 1.75 99.25 C-3.31097299 99.53789966 -8.22390447 99.26927503 -12.5 96.3125 C-13.90390384 93.53746828 -14.13807 91.46646142 -14.5 88.3125 C-17.8 88.3125 -21.1 88.3125 -24.5 88.3125 C-25.83732604 91.9901466 -25.53599814 93.23358099 -23.875 96.875 C-19.68113836 103.42082459 -13.6721563 105.9260126 -6.5 108.3125 C-5.84 108.3125 -5.18 108.3125 -4.5 108.3125 C-4.5 111.9425 -4.5 115.5725 -4.5 119.3125 C-1.53 119.3125 1.44 119.3125 4.5 119.3125 C4.45617187 118.64863281 4.41234375 117.98476563 4.3671875 117.30078125 C4.37574436 114.37005609 4.55116246 112.09461189 5.5 109.3125 C7.86511923 107.57305021 10.19973477 106.62006408 12.91796875 105.5234375 C18.11820337 103.08459827 21.18855053 98.44008223 23.5 93.3125 C25.06512039 87.17241231 23.7832375 83.00124428 21.5 77.3125 C20.84 77.3125 20.18 77.3125 19.5 77.3125 C19.5 76.6525 19.5 75.9925 19.5 75.3125 C18.84 75.3125 18.18 75.3125 17.5 75.3125 C17.5 74.6525 17.5 73.9925 17.5 73.3125 C11.36609487 70.33272179 5.14987374 68.17363485 -1.38671875 66.2421875 C-4.44787029 65.32806696 -7.47444411 64.33765087 -10.5 63.3125 C-11.68609365 57.6192505 -11.16251802 53.88682514 -9.5 48.3125 C-2.85938446 45.91057523 2.79096018 46.07615339 9.5 48.3125 C10.6875 51.375 10.6875 51.375 11.5 54.3125 C15.46 54.3125 19.42 54.3125 23.5 54.3125 C21.80885514 50.08463785 20.19115085 46.92873395 17.5 43.3125 C16.84 43.3125 16.18 43.3125 15.5 43.3125 C15.5 42.6525 15.5 41.9925 15.5 41.3125 C14.86191406 41.04695313 14.22382813 40.78140625 13.56640625 40.5078125 C12.74011719 40.15460938 11.91382813 39.80140625 11.0625 39.4375 C10.23878906 39.08945312 9.41507813 38.74140625 8.56640625 38.3828125 C6.5 37.3125 6.5 37.3125 5.5 35.3125 C5.27532169 33.77581135 5.09203195 32.23281946 4.9375 30.6875 C4.85371094 29.87023437 4.76992187 29.05296875 4.68359375 28.2109375 C4.62300781 27.58445313 4.56242187 26.95796875 4.5 26.3125 C-0.29970742 25.78416284 -0.29970742 25.78416284 -4.5 27.3125 Z " fill="#060606" transform="translate(250.5,223.6875)"/>
<path d="M0 0 C4.21672547 2.29037966 7.36622151 5.27115474 10.5 8.875 C13.58915241 11.50077955 15.17795928 11.49036198 19.09765625 11.2421875 C21.09829142 11.01185115 21.09829142 11.01185115 23.4375 10.5 C29.14135934 9.38705184 34.74726847 9.28891276 40 12 C40.89370102 15.94512216 41.31556129 18.26369031 39.69921875 22.03515625 C38.70341797 23.53369141 38.70341797 23.53369141 37.6875 25.0625 C37.15141113 25.88016846 37.15141113 25.88016846 36.60449219 26.71435547 C35.42564557 28.49272691 34.21587964 30.24677239 33 32 C32.57090332 32.6305127 32.14180664 33.26102539 31.69970703 33.91064453 C30.3950329 35.82400582 29.07675985 37.72689627 27.75 39.625 C27.33838623 40.21676025 26.92677246 40.80852051 26.50268555 41.41821289 C21.37198192 48.5808372 21.37198192 48.5808372 16.84425354 49.38095093 C16.06879684 49.38333771 15.29334015 49.38572449 14.49438477 49.38818359 C13.60989151 49.39764008 12.72539825 49.40709656 11.81410217 49.4168396 C10.86611252 49.41076691 9.91812286 49.40469421 8.94140625 49.3984375 C7.46945045 49.40274277 7.46945045 49.40274277 5.96775818 49.40713501 C3.8941083 49.40917488 1.82043915 49.40365043 -0.25317383 49.39111328 C-3.42247728 49.37507602 -6.59050213 49.39095605 -9.75976562 49.41015625 C-11.77604448 49.40817347 -13.79232253 49.40432907 -15.80859375 49.3984375 C-17.22754189 49.40754654 -17.22754189 49.40754654 -18.67515564 49.4168396 C-23.57351189 49.36465523 -27.09471349 49.28980706 -31 46 C-32.68164062 44.04223633 -32.68164062 44.04223633 -34.15625 41.83203125 C-34.70410156 41.02056641 -35.25195312 40.20910156 -35.81640625 39.37304688 C-36.37199219 38.52806641 -36.92757812 37.68308594 -37.5 36.8125 C-38.05558594 35.98685547 -38.61117187 35.16121094 -39.18359375 34.31054688 C-40.80794142 31.88549136 -42.40959669 29.4474303 -44 27 C-44.49346924 26.24090332 -44.98693848 25.48180664 -45.49536133 24.69970703 C-45.9467749 23.99313965 -46.39818848 23.28657227 -46.86328125 22.55859375 C-47.26071533 21.93654053 -47.65814941 21.3144873 -48.06762695 20.67358398 C-49 19 -49 19 -49.6875 16.25 C-49 14 -49 14 -46.5625 11.6875 C-40.90147275 9.00596078 -35.9459455 9.49560415 -30 11 C-24.14517134 11.38444927 -24.14517134 11.38444927 -19 9 C-18.70867187 8.3709375 -18.41734375 7.741875 -18.1171875 7.09375 C-14.70263804 0.6944545 -6.74917634 -1.67549483 0 0 Z " fill="#0C0C0C" transform="translate(254,172)"/>
<path d="M0 0 C0 0.66 0 1.32 0 2 C1.36125 2.309375 1.36125 2.309375 2.75 2.625 C6.8982567 4.38003168 7.8599341 6.07502808 10 10 C12.53069262 24.52683293 6.71044706 37.94999936 1 51 C1.825 51.350625 2.65 51.70125 3.5 52.0625 C4.325 52.701875 5.15 53.34125 6 54 C6.3125 57.6875 6.3125 57.6875 6 61 C1.85672976 63.0088583 -1.41538356 63.40215934 -6 63 C-9.5438722 61.56882084 -12.71074829 60.13266024 -15 57 C-15.6875 54.3125 -15.6875 54.3125 -16 52 C-16.928125 52.495 -16.928125 52.495 -17.875 53 C-23.41757149 54.77362288 -28.80381454 54.74587431 -34.3125 52.875 C-40.52459016 48.54098361 -40.52459016 48.54098361 -42 45 C-42.82713049 38.52680483 -43.37983647 32.45622343 -40.1171875 26.6484375 C-37.47821395 23.34728608 -36.06009964 22.28213673 -32 21 C-24.62897888 20.39455759 -18.07084094 20.94302809 -11 23 C-9.68 23 -8.36 23 -7 23 C-5.76069277 19.28207831 -5.47142371 15.8632708 -6 12 C-7.26938424 9.31379818 -7.26938424 9.31379818 -10 8 C-14.94824193 7.29181125 -18.59055608 7.65318577 -23 10 C-25.5625 10.375 -25.5625 10.375 -28 10 C-29.875 8.25 -29.875 8.25 -31 6 C-30.85365957 3.58538297 -30.24291247 2.35087356 -28.875 0.375 C-20.61387293 -5.68315985 -8.79046253 -3.64641409 0 0 Z M-26 33 C-27.31968178 34.10528442 -27.31968178 34.10528442 -27.25 36.875 C-27.23631341 39.89828861 -27.23631341 39.89828861 -25.9375 41.8125 C-22.91947533 43.66225706 -20.51972785 43.93931504 -17 44 C-13.8513458 42.18077758 -12.37225692 40.67683076 -10.625 37.5 C-9.95150999 34.80603996 -10.23884394 33.60337433 -11 31 C-18.98932438 29.52807293 -18.98932438 29.52807293 -26 33 Z " fill="#121212" transform="translate(351,104)"/>
<path d="M0 0 C1 1 1 1 1.22265625 4.9921875 C1.15986294 10.04555383 0.00439139 14.35115221 -1.5625 19.125 C-2.11087237 20.8697303 -2.65904071 22.61452474 -3.20703125 24.359375 C-3.49787598 25.27009766 -3.7887207 26.18082031 -4.08837891 27.11914062 C-5.69268921 32.18900178 -7.21350507 37.28426727 -8.75 42.375 C-10.43579181 47.93936307 -12.1225506 53.49649637 -14 59 C-13.1646875 58.70996094 -13.1646875 58.70996094 -12.3125 58.4140625 C-11.549375 58.15367187 -10.78625 57.89328125 -10 57.625 C-9.18402344 57.34527344 -8.36804688 57.06554687 -7.52734375 56.77734375 C-5.2023817 56.06224723 -2.95293507 55.61295358 -0.5625 55.1875 C0.613125 54.795625 1.78875 54.40375 3 54 C4.45863766 51.29392113 4.45863766 51.29392113 5 48 C5.5143293 46.69720649 6.05638523 45.40503234 6.625 44.125 C7.07875 43.09375 7.5325 42.0625 8 41 C10.97 41.495 10.97 41.495 14 42 C15.35530796 46.57416436 16.12594251 50.50708324 16.0625 55.2890625 C16.05347656 56.1754541 16.04445312 57.0618457 16.03515625 57.97509766 C16.02355469 58.64331543 16.01195312 59.3115332 16 60 C10.27488852 62.00565599 4.54572176 63.99909142 -1.1875 65.98144531 C-3.1362469 66.65715775 -5.08385522 67.33616336 -7.03027344 68.01855469 C-9.83233675 69.00027861 -12.63831545 69.96998734 -15.4453125 70.9375 C-16.31116974 71.24373291 -17.17702698 71.54996582 -18.06912231 71.86547852 C-22.49892795 73.37893064 -26.24790413 74.48942164 -31 74 C-32.79723584 72.20276416 -32.23341312 69.79464809 -32.328125 67.3984375 C-31.95527026 64.67304689 -30.95198528 62.48270589 -29.82470703 59.99072266 C-28.28614338 56.2768541 -27.35661927 52.37569745 -26.3125 48.5 C-23.07946834 36.80997173 -19.10134973 25.40952255 -15 14 C-17.23637349 14.71116072 -19.46229369 15.44280059 -21.6875 16.1875 C-23.54955078 16.79658203 -23.54955078 16.79658203 -25.44921875 17.41796875 C-29.28221996 19.12574157 -31.37411891 20.74704283 -34 24 C-34.79142869 26.17764378 -34.79142869 26.17764378 -34.8125 28.3125 C-34.874375 29.529375 -34.93625 30.74625 -35 32 C-36.98 32 -38.96 32 -41 32 C-43.64822297 25.82081307 -44.11267553 20.64785644 -44 14 C-43.24976563 13.75765625 -42.49953125 13.5153125 -41.7265625 13.265625 C-36.85065887 11.66898149 -32.00483773 10.0561457 -27.25 8.125 C-22.76126845 6.30327453 -18.26638409 4.50202781 -13.75 2.75 C-13.07614258 2.47945801 -12.40228516 2.20891602 -11.70800781 1.93017578 C-7.66436927 0.37654623 -4.33040561 -0.39367324 0 0 Z " fill="#141414" transform="translate(179,89)"/>
<path d="M0 0 C4.42152897 2.73576084 7.68260091 6.03149539 9.1875 11.125 C9.89224138 23.34051724 9.89224138 23.34051724 8.375 26.375 C-7.465 26.87 -7.465 26.87 -23.625 27.375 C-22.965 30.345 -22.305 33.315 -21.625 36.375 C-20.965 36.375 -20.305 36.375 -19.625 36.375 C-19.625 37.035 -19.625 37.695 -19.625 38.375 C-18.965 38.375 -18.305 38.375 -17.625 38.375 C-17.625 39.035 -17.625 39.695 -17.625 40.375 C-12.31352305 41.86123896 -6.40871181 42.77635663 -1.3359375 40.22265625 C0.00311013 39.31741993 1.3146174 38.36921527 2.5859375 37.37109375 C4.375 36.375 4.375 36.375 6.6015625 36.72265625 C7.18679687 36.93792969 7.77203125 37.15320313 8.375 37.375 C9.5 44.125 9.5 44.125 8.375 46.375 C7.715 46.375 7.055 46.375 6.375 46.375 C6.375 47.035 6.375 47.695 6.375 48.375 C-1.26294126 54.42331897 -9.02036854 56.2630527 -18.625 55.375 C-26.08916311 53.62098568 -32.21004532 49.68207811 -36.625 43.375 C-41.0814988 36.10387039 -40.66023713 25.16716058 -38.875 17.0625 C-36.21292963 9.2093924 -32.84110542 4.52233461 -25.625 0.375 C-17.97169819 -2.75686792 -7.66407803 -3.51026475 0 0 Z M-21.625 9.375 C-22.85598259 11.97492013 -23.78153092 14.62733557 -24.625 17.375 C-23.65255899 18.5802254 -23.65255899 18.5802254 -21.85913086 18.39672852 C-21.11026611 18.34959717 -20.36140137 18.30246582 -19.58984375 18.25390625 C-18.78095703 18.20556641 -17.97207031 18.15722656 -17.13867188 18.10742188 C-16.28853516 18.05134766 -15.43839844 17.99527344 -14.5625 17.9375 C-13.70849609 17.88529297 -12.85449219 17.83308594 -11.97460938 17.77929688 C-9.85778005 17.64921239 -7.74134756 17.51270029 -5.625 17.375 C-5.98872953 12.5314539 -5.98872953 12.5314539 -8.25 8.4375 C-12.52579817 6.52464292 -17.9392715 6.21580414 -21.625 9.375 Z " fill="#131313" transform="translate(243.625,88.625)"/>
<path d="M0 0 C-0.33 4.29 -0.66 8.58 -1 13 C0.5675 13.12375 2.135 13.2475 3.75 13.375 C7.32317572 13.65709282 9.88089144 14.20724134 13 16 C13.09765625 22.15234375 13.09765625 22.15234375 13 24 C12 25 12 25 8.5625 25.125 C5 25 5 25 3 24 C1.00039988 23.960008 -1.00047242 23.95653201 -3 24 C-3.70280081 28.37268421 -4.38453018 32.74840275 -5.0625 37.125 C-5.26166016 38.3625 -5.46082031 39.6 -5.66601562 40.875 C-5.84970703 42.07382813 -6.03339844 43.27265625 -6.22265625 44.5078125 C-6.39547119 45.60754395 -6.56828613 46.70727539 -6.74633789 47.84033203 C-7.00814185 51.10141662 -6.67457149 53.80997032 -6 57 C-2.26513121 57.5745952 1.21293268 58 5 58 C6.39431504 60.78863007 6.25660094 62.92078868 6 66 C1.97038868 68.68640754 -1.08302869 68.36743889 -5.8125 68.375 C-7.00456055 68.41173828 -7.00456055 68.41173828 -8.22070312 68.44921875 C-13.58335727 68.47583242 -16.94895408 67.83910779 -21 64 C-24.24153296 58.60722005 -24.28915843 53.68011461 -23.375 47.625 C-23.22538818 46.4805542 -23.22538818 46.4805542 -23.07275391 45.31298828 C-21.92961276 36.84405911 -20.49176393 28.41354854 -19 20 C-21.64 19.67 -24.28 19.34 -27 19 C-27.36755175 13.48672381 -27.36755175 13.48672381 -25.85546875 11.484375 C-22.59617674 8.87694139 -18.76694944 7.36416797 -15.0078125 5.59765625 C-12.00845959 4.00449347 -9.62815212 2.13370316 -7 0 C-4 -1 -4 -1 0 0 Z " fill="#111111" transform="translate(292,78)"/>
<path d="M0 0 C0.66 0.33 1.32 0.66 2 1 C-0.31 3.31 -2.62 5.62 -5 8 C-4.67 8.66 -4.34 9.32 -4 10 C-5.32 10.33 -6.64 10.66 -8 11 C-6.125 6.25 -6.125 6.25 -5 4 C-4.34 4 -3.68 4 -3 4 C-3 3.34 -3 2.68 -3 2 C-2.01 1.34 -1.02 0.68 0 0 Z " fill="#444444" transform="translate(355,188)"/>
<path d="M0 0 C0.66 0.99 1.32 1.98 2 3 C-0.64 5.31 -3.28 7.62 -6 10 C-6.66 9.67 -7.32 9.34 -8 9 C-5.36 6.03 -2.72 3.06 0 0 Z " fill="#444444" transform="translate(339,352)"/>
<path d="M0 0 C0.66 0 1.32 0 2 0 C0.70700306 2.88437779 -0.65941363 4.87219421 -3 7 C-3.66 6.67 -4.32 6.34 -5 6 C-3.38405168 3.95880212 -1.7143618 1.95927063 0 0 Z " fill="#626262" transform="translate(213,92)"/>
<path d="" fill="#000000" transform="translate(0,0)"/>
</svg>
